<svg width="112" height="101" viewBox="0 0 112 101" fill="none" xmlns="http://www.w3.org/2000/svg">
<path d="M2.01343 98.9999C10.3409 94.4583 18.5873 90.9357 26.7573 88.4253" stroke="#2D489F" stroke-width="3" stroke-miterlimit="2" stroke-linecap="round" stroke-linejoin="round"/>
<path d="M35.2242 86.1792C60.915 80.4453 85.8298 84.816 109.987 98.9987" stroke="#2D489F" stroke-width="3" stroke-miterlimit="2" stroke-linecap="round" stroke-linejoin="round"/>
<path d="M61.8171 83.2529V63.3003C61.8171 52.0936 65.8571 41.2648 73.197 32.7957C75.9751 29.5902 78.166 27.0641 78.166 27.0641" stroke="#2D489F" stroke-width="3" stroke-miterlimit="2" stroke-linecap="round" stroke-linejoin="round"/>
<path d="M61.817 61.1848C61.817 61.1848 61.1827 55.469 60.5978 50.2075C59.977 44.6289 57.4036 39.4484 53.3299 35.5861C46.2261 28.8513 35.6605 18.8368 35.6605 18.8368" stroke="#2D489F" stroke-width="3" stroke-miterlimit="2" stroke-linecap="round" stroke-linejoin="round"/>
<path d="M55.0396 37.2072C55.0396 37.2072 58.3373 25.3099 52.0096 15.4101C47.2723 8.00044 28.8674 3.74674 19.9078 2.07541C18.5942 1.83247 17.2422 2.18338 16.212 3.02917C15.1795 3.87496 14.5722 5.13465 14.5519 6.46857C14.4597 13.2461 15.7621 25.3504 24.7621 35.0275C38.0271 49.289 49.8299 43.7463 49.8299 43.7463" stroke="#2D489F" stroke-width="3" stroke-miterlimit="2" stroke-linecap="round" stroke-linejoin="round"/>
<path d="M68.4303 38.298C68.4303 38.298 64.2913 29.4779 67.9062 20.939C70.4705 14.8858 82.9437 9.41515 89.9912 6.74282C91.2689 6.25919 92.695 6.37841 93.876 7.06449C95.0569 7.75057 95.8645 8.93152 96.0782 10.2812C96.8857 15.7203 96.9937 24.5336 91.6963 32.6001C83.2609 45.4489 73.3476 42.6956 73.3476 42.6956" stroke="#2D489F" stroke-width="3" stroke-miterlimit="2" stroke-linecap="round" stroke-linejoin="round"/>
<path d="M46.946 29.5355H34.4638" stroke="#2D489F" stroke-width="3" stroke-miterlimit="2" stroke-linecap="round" stroke-linejoin="round"/>
</svg>
