<svg width="109" height="101" viewBox="0 0 109 101" fill="none" xmlns="http://www.w3.org/2000/svg">
<path d="M53.7367 99.0002C53.7367 99.0002 41.584 74.2169 51.6856 40.5771" stroke="#2D489F" stroke-width="3" stroke-miterlimit="2" stroke-linecap="round" stroke-linejoin="round"/>
<path d="M57.0697 98.8912C57.0697 98.8912 57.5825 93.2384 60.7637 85.1428" stroke="#2D489F" stroke-width="3" stroke-miterlimit="2" stroke-linecap="round" stroke-linejoin="round"/>
<path d="M49.8376 90.4344C49.8376 90.4344 31.7286 79.7052 29.8581 48.3483C27.9875 16.9914 65.3213 2 65.3213 2C65.3213 2 70.2315 30.0321 74.104 50.5573C77.9744 71.0804 57.683 87.1363 57.683 87.1363" stroke="#2D489F" stroke-width="3" stroke-miterlimit="2" stroke-linecap="round" stroke-linejoin="round"/>
<path d="M82.0027 36.5029C94.6456 32.5443 107.453 34.6713 107.453 34.6713C107.453 34.6713 98.7887 56.8147 92.6417 73.1475C86.4946 89.4803 65.0382 92.1323 65.0382 92.1323" stroke="#2D489F" stroke-width="3" stroke-miterlimit="2" stroke-linecap="round" stroke-linejoin="round"/>
<path d="M74.7009 62.0252C74.7009 62.0252 77.9663 56.1694 89.7805 54.5573" stroke="#2D489F" stroke-width="3" stroke-miterlimit="2" stroke-linecap="round" stroke-linejoin="round"/>
<path d="M30.6826 57.4445C30.6826 57.4445 13.954 43.4664 2.08851 38.8535C2.08851 38.8535 -1.77573 77.0365 11.1481 89.9849C24.0699 102.933 45.272 93.3467 45.272 93.3467" stroke="#2D489F" stroke-width="3" stroke-miterlimit="2" stroke-linecap="round" stroke-linejoin="round"/>
<path d="M12.147 59.1962C12.147 59.1962 25.598 80.3982 44.6053 86.3176" stroke="#2D489F" stroke-width="3" stroke-miterlimit="2" stroke-linecap="round" stroke-linejoin="round"/>
<path d="M14.0648 76.0912L23.0691 73.7837" stroke="#2D489F" stroke-width="3" stroke-miterlimit="2" stroke-linecap="round" stroke-linejoin="round"/>
</svg>
