<svg width="84" height="97" viewBox="0 0 84 97" fill="none" xmlns="http://www.w3.org/2000/svg">
<path d="M24.064 56.752V41.904H43.136C47.1467 41.904 50.2187 40.88 52.352 38.832C54.5707 36.784 55.68 34.0107 55.68 30.512C55.68 27.2693 54.6133 24.5813 52.48 22.448C50.3467 20.3147 47.2747 19.248 43.264 19.248H24.064V3.632H45.568C51.5413 3.632 56.7893 4.784 61.312 7.088C65.8347 9.30666 69.376 12.4213 71.936 16.432C74.496 20.4427 75.776 25.0507 75.776 30.256C75.776 35.5467 74.496 40.1973 71.936 44.208C69.376 48.1333 65.792 51.2053 61.184 53.424C56.576 55.6427 51.1573 56.752 44.928 56.752H24.064ZM8.704 94V3.632H28.8V94H8.704ZM57.856 94L29.696 55.088L48.128 50.096L81.664 94H57.856Z" fill="#2D489F"/>
</svg>
